<?xml version="1.0" encoding="utf-8"?>
<!-- Generator: Adobe Illustrator 18.1.0, SVG Export Plug-In . SVG Version: 6.00 Build 0)  -->
<!DOCTYPE svg PUBLIC "-//W3C//DTD SVG 1.1//EN" "http://www.w3.org/Graphics/SVG/1.1/DTD/svg11.dtd">
<svg version="1.1" id="Layer_1" xmlns="http://www.w3.org/2000/svg" xmlns:xlink="http://www.w3.org/1999/xlink" x="0px" y="0px"
	 viewBox="0 0 33.3 26.7" enable-background="new 0 0 33.3 26.7" xml:space="preserve">
<g>
	<g>
		<path fill="#010101" d="M21.9,9.7c-0.3-2.5-1.9-3.5-4.3-3.5c-1.9,0-3.9,0.7-3.9,2.9c0,4.2,11,1.3,11,8c0,3.7-3.6,5.1-6.7,5.1
			c-3.9,0-7.1-1.9-7.1-6.1h2.2c0,2.9,2.4,4.1,5,4.1c2.1,0,4.4-0.6,4.4-3.1c0-4.7-11-1.6-11-7.9c0-3.5,3.1-5,6.2-5
			c3.5,0,6.2,1.7,6.3,5.4H21.9z"/>
	</g>
	<g>
		<line fill="#010101" x1="3.7" y1="13.3" x2="30.7" y2="13.3"/>
		<rect x="3.7" y="12.3" fill="#010101" width="27" height="1"/>
	</g>
</g>
</svg>
