<?xml version="1.0" encoding="utf-8"?>
<!-- Generator: Adobe Illustrator 17.1.0, SVG Export Plug-In . SVG Version: 6.00 Build 0)  -->
<!DOCTYPE svg PUBLIC "-//W3C//DTD SVG 1.1//EN" "http://www.w3.org/Graphics/SVG/1.1/DTD/svg11.dtd">
<svg version="1.1" id="Layer_1" xmlns="http://www.w3.org/2000/svg" xmlns:xlink="http://www.w3.org/1999/xlink" x="0px" y="0px"
	 width="480px" height="16px" viewBox="0 0 480 16" style="enable-background:new 0 0 480 16;" xml:space="preserve">
<style type="text/css">
	.st0{fill:#2E77A1;}
</style>
<path id="normal" class="st0" d="M11,5.3l0.8,0.8l-5,5L4.2,8.4L5,7.6l1.9,1.9L11,5.3z M16,8c0,4.4-3.6,8-8,8s-8-3.6-8-8s3.6-8,8-8
	S16,3.6,16,8z M14.9,8c0-3.8-3.1-6.9-6.9-6.9S1.1,4.2,1.1,8s3.1,6.9,6.9,6.9S14.9,11.8,14.9,8z"/>
<path id="error" class="st0" d="M28.3,5.5L25.8,8l2.5,2.5l-0.8,0.8L25,8.8l-2.5,2.5l-0.8-0.8L24.2,8l-2.5-2.5l0.8-0.8L25,7.2
	l2.5-2.5L28.3,5.5z M33,8c0,4.4-3.6,8-8,8s-8-3.6-8-8s3.6-8,8-8S33,3.6,33,8z M31.9,8c0-3.8-3.1-6.9-6.9-6.9S18.1,4.2,18.1,8
	s3.1,6.9,6.9,6.9S31.9,11.8,31.9,8z"/>
<path id="info" class="st0" d="M43.1,11.4h1.1v1.1h-4.6v-1.1h1.1V8h-1.1V6.9h3.4V11.4z M42,5.7c0.6,0,1.1-0.5,1.1-1.1
	S42.6,3.4,42,3.4s-1.1,0.5-1.1,1.1S41.4,5.7,42,5.7z M50,8c0,4.4-3.6,8-8,8s-8-3.6-8-8s3.6-8,8-8S50,3.6,50,8z M48.9,8
	c0-3.8-3.1-6.9-6.9-6.9S35.1,4.2,35.1,8s3.1,6.9,6.9,6.9S48.9,11.8,48.9,8z"/>
<path id="warning" class="st0" d="M58.1,1L50,15h16.2L58.1,1z M58.1,3.2l6.2,10.8H51.9L58.1,3.2z M58.6,6.9V8l-0.3,2.7h-0.5L57.5,8
	V6.9H58.6z M58.6,11.8c0,0.3-0.2,0.5-0.5,0.5s-0.5-0.2-0.5-0.5s0.2-0.5,0.5-0.5S58.6,11.5,58.6,11.8z"/>
<path id="down" class="st0" d="M75.4,4h1.1v8h-1.1V4z M84,8c0,4.4-3.6,8-8,8s-8-3.6-8-8s3.6-8,8-8S84,3.6,84,8z M82.9,8
	c0-3.8-3.1-6.9-6.9-6.9S69.1,4.2,69.1,8s3.1,6.9,6.9,6.9S82.9,11.8,82.9,8z"/>
</svg>
