<?xml version="1.0" encoding="utf-8"?>
<!-- Generator: Adobe Illustrator 17.1.0, SVG Export Plug-In . SVG Version: 6.00 Build 0)  -->
<!DOCTYPE svg PUBLIC "-//W3C//DTD SVG 1.1//EN" "http://www.w3.org/Graphics/SVG/1.1/DTD/svg11.dtd">
<svg version="1.1" id="Layer_1" xmlns="http://www.w3.org/2000/svg" xmlns:xlink="http://www.w3.org/1999/xlink" x="0px" y="0px"
	 width="480px" height="16px" viewBox="0 0 480 16" style="enable-background:new 0 0 480 16;" xml:space="preserve">
<g id="normal">
	<polygon points="6.9,9.5 5,7.6 4.2,8.4 6.9,11.1 11.8,6.1 11,5.3 	"/>
	<path d="M8,0C3.6,0,0,3.6,0,8s3.6,8,8,8s8-3.6,8-8S12.4,0,8,0z M8,14.9c-3.8,0-6.9-3.1-6.9-6.9S4.2,1.1,8,1.1s6.9,3.1,6.9,6.9
		S11.8,14.9,8,14.9z"/>
</g>
<g id="error">
	<polygon points="27.5,4.7 25,7.2 22.5,4.7 21.7,5.5 24.2,8 21.7,10.5 22.5,11.3 25,8.8 27.5,11.3 28.3,10.5 25.8,8 28.3,5.5 	"/>
	<path d="M25,0c-4.4,0-8,3.6-8,8s3.6,8,8,8s8-3.6,8-8S29.4,0,25,0z M25,14.9c-3.8,0-6.9-3.1-6.9-6.9s3.1-6.9,6.9-6.9
		s6.9,3.1,6.9,6.9S28.8,14.9,25,14.9z"/>
</g>
<g id="info">
	<polygon points="43.1,6.9 39.7,6.9 39.7,8 40.9,8 40.9,11.4 39.7,11.4 39.7,12.6 44.3,12.6 44.3,11.4 43.1,11.4 	"/>
	<circle cx="42" cy="4.6" r="1.1"/>
	<path d="M42,0c-4.4,0-8,3.6-8,8s3.6,8,8,8s8-3.6,8-8S46.4,0,42,0z M42,14.9c-3.8,0-6.9-3.1-6.9-6.9s3.1-6.9,6.9-6.9
		s6.9,3.1,6.9,6.9S45.8,14.9,42,14.9z"/>
</g>
<g id="warning">
	<path d="M58.1,1L50,15h16.2L58.1,1z M58.1,3.2l6.2,10.8H51.9L58.1,3.2z"/>
	<polygon points="57.5,6.9 57.5,8 57.8,10.7 58.3,10.7 58.6,8 58.6,6.9 	"/>
	<circle cx="58.1" cy="11.8" r="0.5"/>
</g>
<g id="down">
	<rect x="75.4" y="4" width="1.1" height="8"/>
	<path d="M76,0c-4.4,0-8,3.6-8,8s3.6,8,8,8s8-3.6,8-8S80.4,0,76,0z M76,14.9c-3.8,0-6.9-3.1-6.9-6.9s3.1-6.9,6.9-6.9
		s6.9,3.1,6.9,6.9S79.8,14.9,76,14.9z"/>
</g>
</svg>
