<?xml version="1.0" encoding="utf-8"?>
<!-- Generator: Adobe Illustrator 18.0.0, SVG Export Plug-In . SVG Version: 6.00 Build 0)  -->
<!DOCTYPE svg PUBLIC "-//W3C//DTD SVG 1.1//EN" "http://www.w3.org/Graphics/SVG/1.1/DTD/svg11.dtd">
<svg version="1.1" id="Bee" xmlns="http://www.w3.org/2000/svg" xmlns:xlink="http://www.w3.org/1999/xlink" x="0px" y="0px"
	 width="34px" height="34px" viewBox="0 0 34 34" style="enable-background:new 0 0 34 34;" xml:space="preserve">
<style type="text/css">
	.st0{fill:#D9E8F0;}
</style>
<g>
	<path class="st0" d="M11.9,14.4h9.1c-1-1.3-2.7-2.2-4.6-2.2S12.9,13.1,11.9,14.4z"/>
	<path class="st0" d="M11,16.6c0,0.2,0,0.4,0,0.5v1.6h11v-1.6c0-0.2,0-0.4,0-0.5H11z"/>
	<path class="st0" d="M11,22.7c0,0.2,0,0.4,0,0.5H22c0-0.2,0-0.4,0-0.5V21H11V22.7z"/>
	<path class="st0" d="M16.5,27.6c1.9,0,3.6-0.9,4.6-2.2h-9.1C12.9,26.8,14.6,27.6,16.5,27.6z"/>
	<path class="st0" d="M2.5,15.6c-0.5,0.2-0.9,0.5-1.3,0.9c-0.4,0.4-0.7,0.8-0.9,1.3c-0.2,0.5-0.3,1-0.3,1.5c0,0.5,0.1,1,0.3,1.5
		c0.2,0.5,0.5,0.9,0.9,1.3c0.4,0.4,0.8,0.7,1.3,0.9c0.5,0.2,1,0.3,1.5,0.3c0,0,0,0,0,0c0,0,0,0,0,0c0.5,0,1-0.1,1.5-0.3
		c0.5-0.2,0.9-0.5,1.3-0.9c0.4-0.4,0.7-0.8,0.9-1.3l3.4-8.5L2.5,15.6z M6.6,20.4C6.5,20.7,6.3,21,6,21.3c-0.3,0.3-0.6,0.5-0.9,0.6
		c-0.4,0.1-0.7,0.2-1.1,0.2c-0.4,0-0.7-0.1-1.1-0.2c-0.4-0.1-0.7-0.4-0.9-0.6c-0.3-0.3-0.5-0.6-0.6-0.9c-0.1-0.4-0.2-0.7-0.2-1.1
		c0-0.4,0.1-0.7,0.2-1.1c0.1-0.4,0.4-0.7,0.6-0.9c0.3-0.3,0.6-0.5,0.9-0.6l6.2-2.4L6.6,20.4z"/>
	<path class="st0" d="M32.7,17.7c-0.2-0.5-0.5-0.9-0.9-1.3c-0.4-0.4-0.8-0.7-1.3-0.9L22,12.2l3.4,8.5c0.2,0.5,0.5,0.9,0.9,1.3
		c0.4,0.4,0.8,0.7,1.3,0.9c0.5,0.2,1,0.3,1.5,0.3c0,0,0,0,0,0c0,0,0,0,0,0c0.5,0,1-0.1,1.5-0.3c0.5-0.2,0.9-0.5,1.3-0.9
		c0.4-0.4,0.7-0.8,0.9-1.3c0.2-0.5,0.3-1,0.3-1.5C33,18.7,32.9,18.2,32.7,17.7z M31.7,20.4c-0.1,0.4-0.4,0.7-0.6,0.9
		c-0.3,0.3-0.6,0.5-0.9,0.6c-0.4,0.1-0.7,0.2-1.1,0.2c-0.4,0-0.7-0.1-1.1-0.2c-0.4-0.1-0.7-0.4-0.9-0.6c-0.3-0.3-0.5-0.6-0.6-0.9
		l-2.4-6.2l6.2,2.4c0.4,0.1,0.7,0.4,0.9,0.6c0.3,0.3,0.5,0.6,0.6,0.9c0.1,0.4,0.2,0.7,0.2,1.1C31.9,19.6,31.8,20,31.7,20.4z"/>
	<path class="st0" d="M13.8,11.1c1.2,0,2.2-1,2.2-2.2s-1-2.2-2.2-2.2s-2.2,1-2.2,2.2S12.5,11.1,13.8,11.1z M13.8,7.8
		c0.6,0,1.1,0.5,1.1,1.1c0,0.6-0.5,1.1-1.1,1.1s-1.1-0.5-1.1-1.1C12.7,8.3,13.1,7.8,13.8,7.8z"/>
	<path class="st0" d="M19.2,11.1c1.2,0,2.2-1,2.2-2.2s-1-2.2-2.2-2.2s-2.2,1-2.2,2.2S18,11.1,19.2,11.1z M19.2,7.8
		c0.6,0,1.1,0.5,1.1,1.1c0,0.6-0.5,1.1-1.1,1.1s-1.1-0.5-1.1-1.1C18.1,8.3,18.6,7.8,19.2,7.8z"/>
</g>
</svg>
