<?xml version="1.0" encoding="utf-8"?>
<!-- Generator: Adobe Illustrator 18.0.0, SVG Export Plug-In . SVG Version: 6.00 Build 0)  -->
<!DOCTYPE svg PUBLIC "-//W3C//DTD SVG 1.1//EN" "http://www.w3.org/Graphics/SVG/1.1/DTD/svg11.dtd">
<svg version="1.1" id="Layer_1" xmlns="http://www.w3.org/2000/svg" xmlns:xlink="http://www.w3.org/1999/xlink" x="0px" y="0px"
	 width="1817px" height="16px" viewBox="0 0 1817 16" style="enable-background:new 0 0 1817 16;" xml:space="preserve">
<style type="text/css">
	.st0{fill:#2E78A1;}
	.st1{fill:#231F20;}
</style>
<g id="mail">
	<path class="st0" d="M1174,1l-8,4.4v0.7v8h16v-8V5.4L1174,1z M1174,11.3l-6.9-3.8l0.7-1.3l6.2,3.4l6.2-3.4l0.7,1.3L1174,11.3z"/>
</g>
<g id="bookmark">
	<polygon class="st0" points="905,0 905,16 909.4,11.6 913.8,16 913.8,0 	"/>
</g>
<g id="search">
	<path class="st0" d="M800.9,1.5c2.4,0,4.4,2,4.4,4.4s-2,4.4-4.4,4.4s-4.4-2-4.4-4.4S798.5,1.5,800.9,1.5 M800.9,0
		c-3.2,0-5.8,2.6-5.8,5.8c0,3.2,2.6,5.8,5.8,5.8s5.8-2.6,5.8-5.8C806.7,2.6,804.1,0,800.9,0L800.9,0z"/>
	
		<rect x="806.6" y="10.5" transform="matrix(0.7071 -0.7071 0.7071 0.7071 227.4401 575.2708)" class="st0" width="3.1" height="5.1"/>
</g>
<g id="chart">
	<rect x="954" y="5" class="st0" width="4" height="8"/>
	<rect x="966" y="3" class="st0" width="4" height="10"/>
	<rect x="960" y="8" class="st0" width="4" height="5"/>
</g>
<g id="users">
	<path class="st0" d="M1540.5,12c1.6,0,2.9-1.3,2.9-2.9s-1.3-2.9-2.9-2.9s-2.9,1.3-2.9,2.9S1538.9,12,1540.5,12z M1540.5,7.4
		c0.9,0,1.7,0.8,1.7,1.7c0,0.9-0.8,1.7-1.7,1.7s-1.7-0.8-1.7-1.7C1538.8,8.2,1539.5,7.4,1540.5,7.4z"/>
	<path class="st0" d="M1546.8,9.1c0,1.6,1.3,2.9,2.9,2.9s2.9-1.3,2.9-2.9s-1.3-2.9-2.9-2.9S1546.8,7.6,1546.8,9.1z M1549.6,7.4
		c0.9,0,1.7,0.8,1.7,1.7c0,0.9-0.8,1.7-1.7,1.7s-1.7-0.8-1.7-1.7C1547.9,8.2,1548.7,7.4,1549.6,7.4z"/>
	<path class="st0" d="M1547.9,2.9c0-1.6-1.3-2.9-2.9-2.9s-2.9,1.3-2.9,2.9s1.3,2.9,2.9,2.9S1547.9,4.4,1547.9,2.9z M1545,4.6
		c-0.9,0-1.7-0.8-1.7-1.7s0.8-1.7,1.7-1.7s1.7,0.8,1.7,1.7S1546,4.6,1545,4.6z"/>
	<path class="st0" d="M1542.8,13.1h-4.6c-0.6,0-1.1,0.5-1.1,1.1V16h6.9v-1.7C1543.9,13.7,1543.4,13.1,1542.8,13.1z"/>
	<path class="st0" d="M1551.9,13.1h-4.6c-0.6,0-1.1,0.5-1.1,1.1V16h6.9v-1.7C1553,13.7,1552.5,13.1,1551.9,13.1z"/>
</g>
<g id="clear">
	<polygon class="st0" points="275.7,2 275.7,0 271.7,0 271.7,2 266.7,2 266.7,4 280.7,4 280.7,2 	"/>
	<rect x="268.7" y="5" class="st0" width="10" height="11"/>
</g>
<g id="save">
	<circle class="st0" cx="7.5" cy="7.5" r="1.5"/>
	<path class="st0" d="M0,0v15h12.6l2.4-2.4V0H0z M7.5,12C5.1,12,3,10,3,7.5C3,5,5.1,3,7.5,3S12,5,12,7.5C12,10,10,12,7.5,12z"/>
</g>
<g id="print">
	<rect x="58" y="8" class="st0" width="5" height="1"/>
	<rect x="58" y="10" class="st0" width="5" height="1"/>
	<path class="st0" d="M68,3h-2V0H55v3h-2v6h2v6h11V9h2V3z M56,1h9v2h-9V1z M65,14h-9V9V6h9v3V14z"/>
</g>
<g id="cut">
	<path class="st0" d="M109,9.2c-1.7,0-3,1.3-3,3c0,1.7,1.3,3,3,3c1.7,0,3-1.3,3-3C112,10.5,110.7,9.2,109,9.2z M109,14
		c-1,0-1.8-0.8-1.8-1.8c0-1,0.8-1.8,1.8-1.8c1,0,1.8,0.8,1.8,1.8C110.8,13.2,110,14,109,14z"/>
	<path class="st0" d="M118,9.2c-1.7,0-3,1.3-3,3c0,1.7,1.3,3,3,3c1.7,0,3-1.3,3-3C121,10.5,119.7,9.2,118,9.2z M118,14
		c-1,0-1.8-0.8-1.8-1.8c0-1,0.8-1.8,1.8-1.8c1,0,1.8,0.8,1.8,1.8C119.8,13.2,119,14,118,14z"/>
	<path class="st1" d="M117.3,14"/>
	<path class="st1" d="M115,7.6c0,0.8-0.7,1.5-1.5,1.5c-0.8,0-1.5-0.7-1.5-1.5"/>
	<polygon class="st0" points="118.8,1 113.4,6.4 108,1 108,5.2 111.3,8.5 109.8,10.1 111.1,11.4 113.4,9.1 115.7,11.4 117.1,10.1 
		115.6,8.5 118.8,5.3 	"/>
</g>
<g id="copy">
	<path class="st0" d="M168,3V0h-9v12h4v3h9V3H168z M160,11.1V0.9h7V3h-4v8.1H160z M171,14.1h-7V12v-0.9V3.9h7V14.1z"/>
</g>
<g id="paste">
	<path class="st0" d="M221,3V0h-9v12h4v3h9V3H221z M224,14.1h-7V3.9h7V14.1z"/>
</g>
<g id="delete">
	<path class="st0" d="M326,0c-4.4,0-8,3.6-8,8s3.6,8,8,8s8-3.6,8-8S330.5,0,326,0z M331.5,9h-11V7h11V9z"/>
</g>
<g id="undo">
	<path class="st0" d="M381.2,2c-3.6,0-6.5,2.9-6.5,6.5h0v3.6l-2-2l-0.7,0.7l3.3,3.3l3.3-3.3l-0.7-0.7l-2,2V8.4h0
		c0-3,2.4-5.4,5.4-5.4c3,0,5.4,2.4,5.4,5.4c0,1.4-0.6,2.8-1.6,3.8l0.8,0.8c1.2-1.2,1.9-2.8,1.9-4.6C387.7,4.9,384.8,2,381.2,2z"/>
</g>
<g id="edit_property">
	<rect x="436.6" y="0" transform="matrix(0.7071 -0.7071 0.7071 0.7071 126.422 310.1686)" class="st0" width="2" height="5"/>
	<rect x="430.1" y="3.1" transform="matrix(-0.7071 -0.7071 0.7071 -0.7071 733.0735 318.7506)" class="st0" width="5" height="9"/>
	<polygon class="st0" points="425,15.1 429.6,14 426.1,10.5 	"/>
</g>
<g id="edit_task">
	<rect x="542.6" y="0" transform="matrix(0.7071 -0.7071 0.7071 0.7071 157.467 385.1203)" class="st0" width="2" height="5"/>
	<rect x="536.1" y="3.1" transform="matrix(-0.7071 -0.7071 0.7071 -0.7071 914.0273 393.7034)" class="st0" width="5" height="9"/>
	<polygon class="st0" points="531,15.1 535.6,14 532.1,10.5 	"/>
</g>
<g id="edit">
	<rect x="594.6" y="0" transform="matrix(0.7071 -0.7071 0.7071 0.7071 172.6967 421.8891)" class="st0" width="2" height="5"/>
	
		<rect x="588.1" y="3.1" transform="matrix(-0.7071 -0.7071 0.7071 -0.7071 1002.7972 430.4727)" class="st0" width="5" height="9"/>
	<polygon class="st0" points="583,15.1 587.6,14 584.1,10.5 	"/>
</g>
<g id="new_task">
	<path class="st0" d="M477,0v11h4h1v5h11V0H477z M489.9,8.4h-3.6V12h-1.8V8.4h-3.6V6.6h3.6V3h1.8v3.6h3.6V8.4z"/>
	<polygon class="st0" points="481,15.9 481,12 477.1,12 	"/>
	<polygon class="st0" points="481,16 481,16 481,16 	"/>
</g>
<g id="task">
	<polygon class="st0" points="640,15.9 640,12 636.1,12 	"/>
	<polygon class="st0" points="640,16 640,16 640,16 	"/>
	<path class="st0" d="M636,0v11h4h1v5h11V0H636z M642.8,10.5l-1.4-1.4l0,0l-1.8-1.8l1.4-1.4l1.8,1.8l4.2-4.2l1.4,1.4L642.8,10.5z"/>
</g>
<g id="filter">
	<rect x="690" class="st0" width="14" height="2"/>
	<polygon class="st0" points="696,9.3 696,12.3 696,12.3 696,15.7 698,14 698,9.3 704,3.3 690,3.3 	"/>
</g>
<g id="configure">
	<path class="st0" d="M748.9,1.8c-0.3-1-1.3-1.8-2.4-1.8c-1.1,0-2.1,0.7-2.4,1.8H743v1.5h1.1c0.3,1,1.3,1.8,2.4,1.8
		c1.1,0,2.1-0.7,2.4-1.8h9.1V1.8H748.9z"/>
	<path class="st0" d="M754.5,5c-1.1,0-2.1,0.7-2.4,1.8H743v1.5h9.1c0.3,1,1.3,1.8,2.4,1.8c1.1,0,2.1-0.7,2.4-1.8h1.1V6.8h-1.1
		C756.6,5.7,755.7,5,754.5,5z"/>
	<path class="st0" d="M746.5,10c-1.1,0-2.1,0.7-2.4,1.8H743v1.5h1.1c0.3,1,1.3,1.8,2.4,1.8c1.1,0,2.1-0.7,2.4-1.8h9.1v-1.5h-9.1
		C748.6,10.7,747.7,10,746.5,10z"/>
</g>
<g id="connector">
	<rect x="1008" y="7" class="st0" width="8" height="8"/>
	<rect x="1011" y="1" class="st0" width="2" height="5"/>
	<rect x="1017.5" y="10" class="st0" width="5" height="2"/>
</g>
<g id="database">
	<path class="st0" d="M1074.1,3c0,1.2-2.7,2.2-6,2.2s-6-1-6-2.2v8.9c0,0.1,0,0.1,0,0.2c0,1.6,2.7,2.9,6,2.9s6-1.3,6-2.9
		c0,0,0-0.1,0-0.1h0V3z"/>
	<ellipse class="st0" cx="1068.1" cy="2.5" rx="4.5" ry="1.5"/>
</g>
<g id="file">
	<path class="st0" d="M1122.5,5V0h-6.4v15h11V5H1122.5z M1124,12h-5v-1h5V12z M1124,9h-5V8h5V9z"/>
	<polyline class="st0" points="1123.5,1 1123.5,4 1126.5,4 	"/>
</g>
<g id="document">
	<path class="st0" d="M1228.5,5V0h-6.4v15h11V5H1228.5z"/>
	<polyline class="st0" points="1229.5,1 1229.5,4 1232.5,4 	"/>
</g>
<g id="function">
	<path class="st0" d="M1280,4l-1.8-0.9l0.6-1.9l-1.9,0.6L1276,0l-0.9,1.8l-1.9-0.6l0.6,1.9L1272,4l1.8,0.9l-0.6,1.9l1.9-0.6L1276,8
		l0.9-1.8l1.9,0.6l-0.6-1.9L1280,4z M1276,5.1c-0.7,0-1.2-0.5-1.2-1.2s0.5-1.2,1.2-1.2c0.7,0,1.2,0.5,1.2,1.2S1276.7,5.1,1276,5.1z"
		/>
	<path class="st0" d="M1287.6,10.5l-2.5-1.3l0.8-2.6l-2.6,0.8l-1.3-2.5l-1.3,2.5l-2.6-0.8l0.8,2.6l-2.5,1.3l2.5,1.3l-0.8,2.6
		l2.6-0.8l1.3,2.5l1.3-2.5l2.6,0.8l-0.8-2.6L1287.6,10.5z M1282.1,12c-0.9,0-1.7-0.7-1.7-1.6s0.7-1.7,1.7-1.7c0.9,0,1.7,0.7,1.7,1.7
		S1283,12,1282.1,12z"/>
</g>
<g id="key">
	<path class="st0" d="M1329.5,5.8c-2.5,0-4.5,2-4.5,4.5s2,4.5,4.5,4.5c2.5,0,4.5-2,4.5-4.5S1332,5.8,1329.5,5.8z M1328.5,12.8
		c-0.8,0-1.5-0.7-1.5-1.5c0-0.8,0.7-1.5,1.5-1.5c0.8,0,1.5,0.7,1.5,1.5C1330,12.1,1329.4,12.8,1328.5,12.8z"/>
	<polygon class="st0" points="1339.6,2.5 1339.9,0 1337.5,0.4 1337.5,0.3 1337.5,0.4 1337.5,0.4 1337.5,0.4 1331.5,6.4 1333.6,8.5 
		1339.6,2.5 1339.6,2.5 1339.6,2.5 1339.6,2.5 	"/>
</g>
<g id="folder">
	<polygon class="st0" points="1596,3 1596,1 1591,1 1591,3 1591,3.3 1591,14 1605,14 1605,3 	"/>
</g>
<g id="open_folder">
	<polygon class="st0" points="1657,14 1643,14 1645.1,6 1659.1,6 	"/>
	<path class="st0" d="M1648,3V1h-5v2v1v10h14V3H1648z M1656,13h-12V5V4V3V2h3v1v1h1h8V13z"/>
</g>
<g id="error">
	<path class="st0" d="M1704,0c-4.4,0-8,3.6-8,8s3.6,8,8,8c4.4,0,8-3.6,8-8S1708.5,0,1704,0z M1709,11.5l-1.4,1.4l-3.5-3.5l-3.5,3.5
		l-1.4-1.4l3.5-3.5l-3.5-3.5l1.4-1.4l3.5,3.5l3.5-3.5l1.4,1.4l-3.5,3.5L1709,11.5z"/>
</g>
<g id="sample">
	<circle class="st0" cx="1443" cy="4" r="3"/>
	<rect x="1432" y="1" class="st0" width="6" height="6"/>
	<polygon class="st0" points="1432,14.2 1435,9 1438,14.2 	"/>
	<rect x="1440" y="8" class="st0" width="6" height="6"/>
</g>
<g id="package">
	<path class="st0" d="M1393,4h-14v4h2v7h10V8h2V4z M1390,14h-8V8h8V14z"/>
</g>
<g id="calendar">
	<rect x="1749" y="1" class="st0" width="15" height="3"/>
	<path class="st0" d="M1749,4v11h15V4H1749z M1763,14h-13V5h13V14z"/>
	<g>
		<path class="st0" d="M1758.7,12.6h-4.3c0-1,0.5-1.8,1.4-2.4c0.8-0.6,1.9-1.1,1.9-2.1c0-0.4-0.2-1.1-1.1-1.1
			c-0.8,0-1.1,0.7-1.1,1.6h-1c0-1.4,0.8-2.4,2.2-2.4c1.5,0,2,1.1,2,1.9c0,2-2.7,2.4-3.1,3.6h3.1V12.6z"/>
	</g>
</g>
<g id="time">
	<path class="st0" d="M1809.5,0c-4.1,0-7.5,3.4-7.5,7.5s3.4,7.5,7.5,7.5c4.1,0,7.5-3.4,7.5-7.5S1813.7,0,1809.5,0z M1814,9.5h-6V8
		V7.5V3h2v4.5h4V9.5z"/>
</g>
<g id="table">
	<path class="st0" d="M1484,1v3h0v11h15V4h0V1H1484z M1498,14h-13V5h13V14z"/>
	<rect x="1493" y="5" class="st0" width="1" height="9"/>
	<rect x="1485" y="9" class="st0" width="14" height="1"/>
</g>
<g id="application">
	<rect x="868.6" class="st0" width="0.1" height="0"/>
	<g>
		<rect x="848" y="1.5" class="st0" width="15" height="3"/>
		<path class="st0" d="M848,4.5v11h15v-11H848z M862,14.5h-13v-9h13V14.5z"/>
	</g>
</g>
</svg>
