<?xml version="1.0" encoding="utf-8"?>
<!-- Generator: Adobe Illustrator 18.0.0, SVG Export Plug-In . SVG Version: 6.00 Build 0)  -->
<!DOCTYPE svg PUBLIC "-//W3C//DTD SVG 1.1//EN" "http://www.w3.org/Graphics/SVG/1.1/DTD/svg11.dtd">
<svg version="1.1" id="Layer_1" xmlns="http://www.w3.org/2000/svg" xmlns:xlink="http://www.w3.org/1999/xlink" x="0px" y="0px"
	 width="300px" height="100px" viewBox="0 0 300 100" style="background-color: transparent;" xml:space="preserve">
<style type="text/css">
	.confirmFill{fill:#269c6c;}
	.infoFill{fill:#267bac;}
	.warningFill{fill:#ffe268;}
	.criticalFill{fill:#D9182D;}
</style>
<g id="Confirm26">
	<polygon class="confirmFill" points="112,16.6 108.7,13.3 107.3,14.7 112,19.4 120.7,10.7 119.3,9.3 	"/>
	<path class="confirmFill" d="M114,0c-7.7,0-14,6.3-14,14s6.3,14,14,14s14-6.3,14-14S121.7,0,114,0z M114,26c-6.6,0-12-5.4-12-12
		s5.4-12,12-12s12,5.4,12,12S120.6,26,114,26z"/>
</g>
<g id="Info26">
	<polygon class="infoFill" points="82,12 76,12 76,14 78,14 78,20 76,20 76,22 84,22 84,20 82,20 	"/>
	<circle class="infoFill" cx="80" cy="8" r="2"/>
	<path class="infoFill" d="M80,0c-7.7,0-14,6.3-14,14s6.3,14,14,14s14-6.3,14-14S87.7,0,80,0z M80,26c-6.6,0-12-5.4-12-12S73.4,2,80,2
		s12,5.4,12,12S86.6,26,80,26z"/>
</g>
<g id="Warning26">
	<path class="warningFill" d="M47,1.9L33,26.1h28L47,1.9z M47,5.6l10.8,18.7H36.2L47,5.6z"/>
	<polygon class="warningFill" points="46.1,12.1 46.1,14 46.5,18.7 47.5,18.7 47.9,14 47.9,12.1 	"/>
	<circle class="warningFill" cx="47" cy="20.5" r="0.9"/>
</g>
<g id="Critical26">
	<polygon class="criticalFill" points="18.3,8.3 14,12.6 9.7,8.3 8.3,9.7 12.6,14 8.3,18.3 9.7,19.7 14,15.4 18.3,19.7 19.7,18.3 15.4,14 
		19.7,9.7 	"/>
	<path class="criticalFill" d="M14,0C6.3,0,0,6.3,0,14s6.3,14,14,14s14-6.3,14-14S21.7,0,14,0z M14,26C7.4,26,2,20.6,2,14S7.4,2,14,2
		s12,5.4,12,12S20.6,26,14,26z"/>
</g>
</svg>
