<?xml version="1.0" encoding="utf-8"?>
<!-- Generator: Adobe Illustrator 18.0.0, SVG Export Plug-In . SVG Version: 6.00 Build 0)  -->
<!DOCTYPE svg PUBLIC "-//W3C//DTD SVG 1.1//EN" "http://www.w3.org/Graphics/SVG/1.1/DTD/svg11.dtd">
<svg version="1.1" id="Layer_1" xmlns="http://www.w3.org/2000/svg" xmlns:xlink="http://www.w3.org/1999/xlink" x="0px" y="0px"
	 width="300px" height="100px" viewBox="0 0 300 100" style="background-color: transparent;" xml:space="preserve">
<style type="text/css">
	.st0{fill:#FFFFFF;}
	.st1{fill:#6F7076;}
</style>
<g id="Error56">
	<polygon class="st0" points="36.6,58.6 28,67.2 19.4,58.6 16.6,61.4 25.2,70 16.6,78.6 19.4,81.4 28,72.8 36.6,81.4 39.4,78.6 
		30.8,70 39.4,61.4 	"/>
	<path class="st0" d="M28,42C12.5,42,0,54.5,0,70s12.5,28,28,28c15.5,0,28-12.5,28-28S43.5,42,28,42z M28,96C13.7,96,2,84.3,2,70
		s11.7-26,26-26s26,11.7,26,26S42.3,96,28,96z"/>
</g>
<g id="Warning56">
	<path class="st1" d="M90,46L62,94.5h56L90,46z M90,49.7l24.8,42.9H65.2L90,49.7z"/>
	<polygon class="st1" points="88.1,66.5 88.1,70.3 89.1,79.6 90.9,79.6 91.9,70.3 91.9,66.5 	"/>
	<circle class="st1" cx="90" cy="83.3" r="1.9"/>
</g>
<g id="Info56">
	<polygon class="st0" points="218,66 206,66 206,70 210,70 210,82 206,82 206,86 222,86 222,82 218,82 	"/>
	<circle class="st0" cx="214" cy="58" r="4"/>
	<path class="st0" d="M214,42c-15.5,0-28,12.5-28,28s12.5,28,28,28s28-12.5,28-28S229.5,42,214,42z M214,96c-14.3,0-26-11.7-26-26
		c0-14.3,11.7-26,26-26c14.3,0,26,11.7,26,26C240,84.3,228.3,96,214,96z"/>
</g>
<g id="Confirm56">
	<polygon class="st0" points="148,75.2 141.4,68.6 138.6,71.4 148,80.8 165.4,63.4 162.6,60.6 	"/>
	<path class="st0" d="M152,42c-15.5,0-28,12.5-28,28s12.5,28,28,28s28-12.5,28-28S167.5,42,152,42z M152,96c-14.3-0.5-26-11.7-26-26
		c0-14.3,11.7-26,26-26c14.3,0,26.1,11.7,26,26C177.9,84.9,166.2,96.5,152,96z"/>
</g>
<g id="Confirm26">
	<polygon class="st0" points="112,16.6 108.7,13.3 107.3,14.7 112,19.4 120.7,10.7 119.3,9.3 	"/>
	<path class="st0" d="M114,0c-7.7,0-14,6.3-14,14s6.3,14,14,14s14-6.3,14-14S121.7,0,114,0z M114,26c-6.6,0-12-5.4-12-12
		s5.4-12,12-12s12,5.4,12,12S120.6,26,114,26z"/>
</g>
<g id="Info26">
	<polygon class="st0" points="82,12 76,12 76,14 78,14 78,20 76,20 76,22 84,22 84,20 82,20 	"/>
	<circle class="st0" cx="80" cy="8" r="2"/>
	<path class="st0" d="M80,0c-7.7,0-14,6.3-14,14s6.3,14,14,14s14-6.3,14-14S87.7,0,80,0z M80,26c-6.6,0-12-5.4-12-12S73.4,2,80,2
		s12,5.4,12,12S86.6,26,80,26z"/>
</g>
<g id="Warning26">
	<path class="st1" d="M47,1.9L33,26.1h28L47,1.9z M47,5.6l10.8,18.7H36.2L47,5.6z"/>
	<polygon class="st1" points="46.1,12.1 46.1,14 46.5,18.7 47.5,18.7 47.9,14 47.9,12.1 	"/>
	<circle class="st1" cx="47" cy="20.5" r="0.9"/>
</g>
<g id="Critical26">
	<polygon class="st0" points="18.3,8.3 14,12.6 9.7,8.3 8.3,9.7 12.6,14 8.3,18.3 9.7,19.7 14,15.4 18.3,19.7 19.7,18.3 15.4,14 
		19.7,9.7 	"/>
	<path class="st0" d="M14,0C6.3,0,0,6.3,0,14s6.3,14,14,14s14-6.3,14-14S21.7,0,14,0z M14,26C7.4,26,2,20.6,2,14S7.4,2,14,2
		s12,5.4,12,12S20.6,26,14,26z"/>
</g>
</svg>
