<?xml version="1.0" encoding="utf-8"?>
<!-- Generator: Adobe Illustrator 18.0.0, SVG Export Plug-In . SVG Version: 6.00 Build 0)  -->
<!DOCTYPE svg PUBLIC "-//W3C//DTD SVG 1.1//EN" "http://www.w3.org/Graphics/SVG/1.1/DTD/svg11.dtd">
<svg version="1.1" id="Layer_1" xmlns="http://www.w3.org/2000/svg" xmlns:xlink="http://www.w3.org/1999/xlink" x="0px" y="0px"
	 viewBox="0 0 218 116" enable-background="new 0 0 218 116" width="218px" height="116px" xml:space="preserve">
<g>
	<polygon fill="#D0D2D3" points="48.5,31.4 52.8,35.7 41.2,35.7 41.2,37.7 52.8,37.7 48.5,42 49.9,43.4 56.6,36.7 49.9,30 	"/>
	<path fill="#D0D2D3" d="M49.2,22.7c-7.7,0-14,6.3-14,14s6.3,14,14,14s14-6.3,14-14S56.9,22.7,49.2,22.7z M49.2,48.7
		c-6.6,0-12-5.4-12-12s5.4-12,12-12s12,5.4,12,12S55.8,48.7,49.2,48.7z"/>
</g>
<g>
	<path fill="#D0D2D3" d="M89.8,22.7c-7.7,0-14,6.3-14,14s6.3,14,14,14s14-6.3,14-14S97.5,22.7,89.8,22.7z M89.8,48.7
		c-6.6,0-12-5.4-12-12s5.4-12,12-12s12,5.4,12,12S96.4,48.7,89.8,48.7z"/>
	<polygon fill="#D0D2D3" points="90.5,31.4 89.1,30 82.4,36.7 89.1,43.4 90.5,42 86.2,37.7 97.8,37.7 97.8,35.7 86.2,35.7 	"/>
</g>
<g>
	<path fill="#D0D2D3" d="M144.4,36.7c0-7.7-6.3-14-14-14s-14,6.3-14,14s6.3,14,14,14S144.4,44.4,144.4,36.7z M118.4,36.7
		c0-6.6,5.4-12,12-12s12,5.4,12,12s-5.4,12-12,12S118.4,43.3,118.4,36.7z"/>
	<polygon fill="#D0D2D3" points="135.7,37.4 137.1,36 130.4,29.3 123.7,36 125.1,37.4 129.4,33.1 129.4,44.7 131.4,44.7 131.4,33.1 
			"/>
</g>
<g>
	<path fill="#D0D2D3" d="M157,37c0,7.7,6.3,14,14,14c7.7,0,14-6.3,14-14s-6.3-14-14-14C163.3,23,157,29.3,157,37z M183,37
		c0,6.6-5.4,12-12,12c-6.6,0-12-5.4-12-12s5.4-12,12-12C177.7,25,183,30.4,183,37z"/>
	<polygon fill="#D0D2D3" points="165.7,36.3 164.3,37.7 171,44.4 177.7,37.7 176.3,36.3 172,40.6 172,29 170,29 170,40.6 	"/>
</g>
<g>
	<polygon fill="#085F98" points="48.2,76 52.5,80.3 40.9,80.3 40.9,82.3 52.5,82.3 48.2,86.6 49.6,88 56.3,81.3 49.6,74.6 	"/>
	<path fill="#085F98" d="M48.9,67.3c-7.7,0-14,6.3-14,14s6.3,14,14,14s14-6.3,14-14S56.6,67.3,48.9,67.3z M48.9,93.3
		c-6.6,0-12-5.4-12-12c0-6.6,5.4-12,12-12s12,5.4,12,12C60.9,87.9,55.5,93.3,48.9,93.3z"/>
</g>
<g>
	<path fill="#085F98" d="M89.8,67.3c-7.7,0-14,6.3-14,14s6.3,14,14,14s14-6.3,14-14S97.5,67.3,89.8,67.3z M89.8,93.3
		c-6.6,0-12-5.4-12-12c0-6.6,5.4-12,12-12c6.6,0,12,5.4,12,12C101.8,87.9,96.4,93.3,89.8,93.3z"/>
	<polygon fill="#085F98" points="90.5,76 89.1,74.6 82.4,81.3 89.1,88 90.5,86.6 86.2,82.3 97.8,82.3 97.8,80.3 86.2,80.3 	"/>
</g>
<g>
	<path fill="#085F98" d="M144.4,81.3c0-7.7-6.3-14-14-14s-14,6.3-14,14s6.3,14,14,14S144.4,89,144.4,81.3z M118.4,81.3
		c0-6.6,5.4-12,12-12s12,5.4,12,12c0,6.6-5.4,12-12,12S118.4,87.9,118.4,81.3z"/>
	<polygon fill="#085F98" points="135.7,82 137.1,80.6 130.4,73.9 123.7,80.6 125.1,82 129.4,77.7 129.4,89.3 131.4,89.3 131.4,77.7 
			"/>
</g>
<g>
	<path fill="#085F98" d="M157,81.6c0,7.7,6.3,14,14,14c7.7,0,14-6.3,14-14s-6.3-14-14-14C163.3,67.6,157,73.9,157,81.6z M183,81.6
		c0,6.6-5.4,12-12,12c-6.6,0-12-5.4-12-12c0-6.6,5.4-12,12-12C177.7,69.6,183,75,183,81.6z"/>
	<polygon fill="#085F98" points="165.7,80.9 164.3,82.3 171,89 177.7,82.3 176.3,80.9 172,85.2 172,73.6 170,73.6 170,85.2 	"/>
</g>
</svg>
